<?xml version="1.0" encoding="utf-8"?>
<!-- Generator: Adobe Illustrator 26.5.0, SVG Export Plug-In . SVG Version: 6.00 Build 0)  -->
<svg version="1.1" id="Layer_1" xmlns:inkscape="http://www.inkscape.org/namespaces/inkscape"
	 xmlns="http://www.w3.org/2000/svg" xmlns:xlink="http://www.w3.org/1999/xlink" x="0px" y="0px" viewBox="0 0 841 718"
	 style="enable-background:new 0 0 841 718;" xml:space="preserve">
<style type="text/css">
	.st0{display:none;}
	.st1{display:inline;fill:none;stroke:#FFFFFF;stroke-width:3;}
	.st2{fill:none;stroke:#1A00E9;stroke-width:5;stroke-miterlimit:10;}
</style>
<g inkscape:groupmode="layer" inkscape:label="Grayscale cortical photograph" class="st0">
	<image style="display:inline;overflow:visible;enable-background:new    ;" width="841" height="718" xlink:href="89184B4E.png" >
	</image>
</g>
<g inkscape:groupmode="layer" inkscape:label="Area borders - relaxed">
	<image style="overflow:visible;enable-background:new    ;" width="841" height="718" xlink:href="89184B52.png" >
	</image>
</g>
<g inkscape:groupmode="layer" inkscape:label="Retinotopic contours" class="st0">
	<image style="display:inline;overflow:visible;enable-background:new    ;" width="841" height="718" xlink:href="89184B55.png" >
	</image>
</g>
<g inkscape:groupmode="layer" inkscape:label="Implant openings" class="st0">
	<image style="display:inline;overflow:visible;enable-background:new    ;" width="841" height="718" xlink:href="89184B56.png" >
	</image>
</g>
<g inkscape:groupmode="layer" inkscape:label="Sites - intended_penetration_target" class="st0">
	<image style="display:inline;overflow:visible;enable-background:new    ;" width="841" height="718" xlink:href="89184B54.png" >
	</image>
</g>
<g inkscape:groupmode="layer" inkscape:label="Inner optical-window edge" class="st0">
	<path class="st1" d="M240.9,14.9v0.3l0,0.7l0,1l0,1.3l0,1.5l0,1.8l0,2l0,2.2v2.4l0,2.5l0,2.6l-0.1,2.7l-0.1,2.7l-0.2,2.8l-0.2,2.8
		l-0.3,2.8l-0.3,2.8l-0.4,2.9l-0.5,2.8l-0.5,2.8l-0.6,2.8l-0.6,2.8l-0.7,2.8l-0.7,2.8l-0.8,2.8l-0.8,2.8l-0.8,2.8l-0.8,2.8l-0.9,2.8
		l-0.9,2.8l-0.9,2.8l-0.9,2.8l-0.8,2.8l-0.8,2.8l-0.8,2.8l-0.8,2.8l-0.7,2.8l-0.7,2.8l-0.7,2.8l-0.6,2.8l-0.6,2.9l-0.5,2.8l-0.5,2.9
		l-0.4,2.9l-0.4,2.9l-0.4,2.9l-0.3,2.9l-0.3,2.9l-0.3,2.9l-0.3,2.9l-0.3,2.9l-0.3,2.9l-0.3,2.9l-0.4,2.9l-0.4,2.9l-0.4,2.9l-0.5,2.9
		l-0.5,2.9l-0.6,2.8l-0.6,2.8l-0.7,2.8l-0.7,2.8l-0.7,2.8l-0.8,2.8l-0.7,2.8l-0.7,2.8l-0.7,2.8l-0.6,2.8l-0.6,2.8l-0.6,2.8l-0.5,2.9
		l-0.4,2.9l-0.4,2.9l-0.4,2.9l-0.4,2.9l-0.3,2.9l-0.3,2.9l-0.3,2.9l-0.3,2.9l-0.3,2.9l-0.3,2.9l-0.3,2.9l-0.3,2.9l-0.2,2.9l-0.2,2.9
		l-0.2,2.9l-0.2,2.9l-0.2,2.9l-0.1,2.9l-0.1,2.9l-0.1,2.9l-0.1,2.9l-0.1,2.9l-0.1,2.9l-0.1,2.9l-0.1,2.9l-0.1,2.9l0,2.9l0,2.9l0,2.9
		v2.9v2.9l0,2.9l0,2.9l0,2.9l0,2.9l0,2.9l0,2.9l0,2.9l0,2.9l0,2.9l0,2.9l0,2.9l0,2.9l0,2.9l0,2.9l0,2.9v2.9l0,2.9l0,2.9l-0.1,2.9
		l-0.1,2.9l-0.1,2.9l-0.1,2.9l-0.1,2.9l-0.1,2.9l-0.1,2.9l-0.1,2.9l-0.1,2.9l0,2.9l0,3l0.1,2.9l0.1,2.9l0.2,2.9l0.2,2.9l0.3,2.9
		l0.3,2.9l0.4,2.9l0.5,2.9l0.5,2.9l0.6,2.9l0.6,2.9l0.7,2.9l0.7,2.9l0.7,2.9l0.8,2.9l0.8,2.9l0.8,2.9l0.8,2.9l0.8,2.9l0.7,2.9
		l0.7,2.9l0.7,2.9l0.7,2.9l0.7,2.9l0.7,2.9l0.7,2.9l0.7,2.9l0.7,2.9l0.7,2.9l0.7,2.9l0.7,2.9l0.7,2.8l0.8,2.8l0.8,2.8l0.8,2.8
		l0.8,2.8l0.9,2.8l0.9,2.8l0.9,2.8l0.9,2.8l1,2.8l1,2.7l1,2.7l1,2.7l1.1,2.7l1.1,2.7l1.1,2.7l1.1,2.7l1.2,2.7l1.2,2.6l1.2,2.6
		l1.3,2.6l1.3,2.6l1.3,2.6l1.4,2.5l1.4,2.5l1.4,2.5l1.4,2.5l1.4,2.5l1.4,2.5l1.4,2.5l1.4,2.5l1.4,2.5l1.4,2.5l1.4,2.5l1.4,2.5
		l1.4,2.5l1.4,2.5l1.4,2.5l1.5,2.4l1.5,2.4l1.5,2.4l1.5,2.4l1.6,2.4l1.6,2.4l1.6,2.3l1.6,2.3l1.7,2.3l1.7,2.3l1.7,2.3l1.7,2.2
		l1.8,2.2l1.8,2.2l1.8,2.2l1.8,2.2l1.8,2.2l1.8,2.2l1.9,2.2l1.9,2.2l1.9,2.1l1.9,2.1l1.9,2.1l2,2.1l2,2l2,2l2.1,2l2.1,2l2.1,1.9
		l2.1,1.9l2.2,1.9l2.2,1.9l2.2,1.9l2.2,1.8l2.2,1.8l2.2,1.8l2.2,1.8l2.3,1.8l2.3,1.8l2.3,1.8l2.3,1.7l2.3,1.7l2.3,1.7l2.4,1.7
		l2.4,1.6l2.4,1.6l2.4,1.5l2.5,1.5l2.5,1.5l2.5,1.4l2.5,1.4l2.5,1.4l2.6,1.3l2.6,1.3l2.6,1.3l2.6,1.2l2.6,1.2l2.6,1.1l2.7,1.1
		l2.7,1.1l2.7,1l2.7,1l2.7,1l2.7,1l2.7,0.9l2.7,0.9l2.7,0.9l2.7,0.9l2.7,0.9l2.8,0.9l2.7,0.9l2.7,0.9l2.8,0.9l2.7,0.9l2.7,0.9
		l2.7,0.9l2.7,0.9l2.7,0.9l2.7,0.9l2.7,0.9l2.7,0.9l2.8,0.9l2.8,0.9l2.8,0.8l2.8,0.8l2.8,0.8l2.8,0.8l2.8,0.7l2.8,0.7l2.8,0.7
		l2.8,0.7l2.8,0.7l2.8,0.6l2.8,0.6l2.9,0.6l2.9,0.6l2.9,0.6l2.9,0.6l2.9,0.5l2.9,0.5l2.9,0.5l2.9,0.4l2.9,0.3l2.9,0.3l2.9,0.2
		l2.9,0.1l2.9,0l2.9,0l2.9-0.1l2.9-0.2l2.9-0.2l2.9-0.3l2.9-0.4l2.9-0.4l2.9-0.4l2.9-0.4l2.9-0.4l2.9-0.4l2.9-0.4l2.9-0.4l2.9-0.4
		l2.9-0.3l2.9-0.3l2.9-0.3l2.9-0.3l2.9-0.3l2.9-0.3l2.9-0.3l2.9-0.3l2.9-0.3l2.9-0.3l2.9-0.4l2.9-0.4l2.9-0.4l2.9-0.5l2.9-0.5
		l2.9-0.5l2.9-0.6l2.9-0.7l2.9-0.7l2.9-0.8l2.8-0.8l2.8-0.9l2.8-0.9l2.8-0.9l2.8-0.9l2.8-1l2.8-1l2.8-1l2.8-1l2.8-0.9l2.8-0.9
		l2.8-0.9l2.8-0.9l2.8-0.8l2.8-0.8l2.9-0.8l2.8-0.8l2.8-0.8l2.8-0.8l2.8-0.8l2.8-0.9l2.8-0.9l2.7-1l2.7-1.1l2.7-1.1l2.6-1.2l2.6-1.2
		l2.6-1.3l2.6-1.4l2.5-1.4l2.5-1.4l2.5-1.4l2.5-1.4l2.5-1.5l2.5-1.5l2.5-1.5l2.5-1.4l2.5-1.4l2.5-1.4l2.5-1.4l2.5-1.4l2.5-1.4
		l2.5-1.4l2.5-1.5l2.4-1.5l2.4-1.5l2.4-1.5l2.4-1.6l2.3-1.6l2.3-1.6l2.3-1.6l2.2-1.7l2.2-1.7l2.2-1.8l2.2-1.8l2.1-1.8l2.1-1.8
		l2.1-1.9l2.1-1.9l2-1.9l2-2l2-2l2-2l1.9-2l1.9-2.1l1.9-2.1l1.8-2.1l1.8-2.1l1.8-2.2l1.7-2.2l1.7-2.2l1.6-2.3l1.6-2.3l1.5-2.3
		l1.5-2.4l1.4-2.4l1.4-2.4l1.3-2.5l1.3-2.5l1.3-2.5l1.3-2.5l1.2-2.5l1.2-2.5l1.2-2.6l1.2-2.6l1.2-2.6l1.2-2.6l1.2-2.6l1.2-2.6
		l1.2-2.6l1.2-2.6l1.2-2.6l1.2-2.6l1.2-2.6l1.1-2.6l1.1-2.7l1-2.7l1-2.7l0.9-2.7l0.9-2.8l0.8-2.8l0.7-2.8l0.6-2.8l0.6-2.8l0.5-2.8
		l0.5-2.9l0.4-2.9l0.4-2.9l0.3-2.9l0.3-2.9l0.3-2.9l0.2-2.9l0.2-2.9l0.2-2.9l0.2-2.9l0.2-2.9l0.2-2.9l0.2-2.9l0.2-2.9l0.2-2.9
		l0.2-2.9l0.1-2.9l0.1-2.9l0.1-2.9l0.1-2.9l0.1-2.9l0.1-2.9l0.1-2.9l0.1-2.9l0.1-3l0.2-2.9l0.2-2.9l0.2-2.9l0.2-3l0.2-3l0.2-2.9
		l0.2-3l0.2-2.9l0.2-3l0.2-3l0.1-3l0.1-3l0.1-2.9l0.1-3l0-2.9l0-2.9v-3l0-2.9l0-2.9l0-2.9l-0.1-2.9l-0.1-2.9l-0.1-2.9l-0.1-2.9
		l-0.1-2.9l-0.1-2.9l-0.1-2.9l-0.2-2.9l-0.2-2.9l-0.2-2.9l-0.2-2.9l-0.2-2.8l-0.2-2.8L839,340l-0.3-2.7l-0.3-2.7l-0.3-2.6l-0.3-2.5
		l-0.3-2.4l-0.3-2.3l-0.2-2.1l-0.2-1.9l-0.2-1.7l-0.2-1.5l-0.1-1.2l-0.1-0.9l-0.1-0.6l0-0.3"/>
</g>
<g inkscape:groupmode="layer" inkscape:label="Original annotations - hidden reference">
	<image style="overflow:visible;enable-background:new    ;" width="841" height="718" xlink:href="89184B52.png" >
	</image>
</g>
<polygon class="st2" points="575.9,317.3 503,339 480,353 446,407 433,463 413,494 389,525 374,603 370,635 387,659 416,681 
	451,699 497,699 600,675 664,635 686,601 687,564 678,527 610.9,414.5 586.7,326.7 "/>
</svg>
